<?xml version="1.0" encoding="UTF-8"?>
<svg id="Layer_1" xmlns="http://www.w3.org/2000/svg" xmlns:xlink="http://www.w3.org/1999/xlink" viewBox="0 0 1232 448.23">
  <defs>
    <style>
      .cls-1 {
        fill: url(#linear-gradient);
      }

      .cls-2 {
        fill: #fbb03a;
        stroke: #f15a26;
      }

      .cls-2, .cls-3 {
        stroke-miterlimit: 10;
        stroke-width: 3px;
      }

      .cls-3 {
        stroke: #fbb03a;
      }
    </style>
    <linearGradient id="linear-gradient" x1="1081.97" y1="65.41" x2="1181.87" y2="238.43" gradientTransform="translate(-.71 2.05) rotate(-.36)" gradientUnits="userSpaceOnUse">
      <stop offset=".39" stop-color="#fbb03a"/>
      <stop offset=".6" stop-color="#f15a26"/>
    </linearGradient>
  </defs>
  <g>
    <path class="cls-1" d="M1131.51,47.05c-55.16.34-99.59,45.34-99.25,100.49.34,55.16,45.34,99.59,100.49,99.25s99.59-45.34,99.25-100.49c-.34-55.16-45.34-99.59-100.49-99.25ZM1132.33,179.05c-17.75.11-32.22-14.19-32.33-31.93-.11-17.75,14.19-32.22,31.93-32.33s32.22,14.19,32.33,31.93c.11,17.75-14.19,32.22-31.93,32.33Z"/>
    <path d="M1131.23,142.58c-2.88.02-5.2,2.37-5.18,5.24s2.37,5.2,5.24,5.18,5.2-2.37,5.18-5.24-2.37-5.2-5.24-5.18Z"/>
  </g>
  <g>
    <path class="cls-2" d="M194.25,1.51l.26,42.13-71.19.44,1.22,195.81-50.04.31-1.22-195.81-71.51.44L1.51,2.71l192.74-1.2Z"/>
    <path class="cls-2" d="M346.99,186.85c-1.12,10.45-6.49,21.08-16.11,31.9-14.96,17.2-36,25.89-63.12,26.06-22.38.14-42.18-6.95-59.38-21.26-17.2-14.31-25.9-37.72-26.1-70.22-.19-30.46,7.39-53.86,22.73-70.2,15.34-16.35,35.33-24.6,59.98-24.75,14.63-.09,27.84,2.57,39.6,7.99,11.76,5.42,21.5,14.02,29.22,25.81,6.95,10.4,11.49,22.47,13.62,36.24,1.23,8.06,1.79,19.68,1.67,34.86l-120.42.75c.76,17.64,6.37,29.99,16.86,37.02,6.38,4.37,14.03,6.53,22.96,6.48,9.47-.06,17.15-2.8,23.03-8.21,3.21-2.93,6.03-6.98,8.48-12.16l46.97-.29ZM301.13,133.22c-.83-12.16-4.57-21.36-11.23-27.62s-14.89-9.35-24.68-9.29c-10.65.07-18.89,3.45-24.72,10.16-5.83,6.71-9.45,15.77-10.89,27.19l71.51-.44Z"/>
    <path class="cls-2" d="M478.56,110.16c-3.93-8.48-11.54-12.68-22.84-12.61-13.13.08-21.93,4.39-26.39,12.92-2.45,4.86-3.64,12.08-3.58,21.65l.66,105.89-46.65.29-1.09-175.63,44.71-.28.16,25.67c5.65-9.18,10.98-15.73,16.02-19.63,8.89-6.94,20.44-10.46,34.64-10.55,13.45-.08,24.34,2.81,32.66,8.68,6.71,5.45,11.81,12.46,15.31,21.05,5.96-10.37,13.39-18,22.3-22.9,9.44-4.9,19.97-7.39,31.59-7.46,7.75-.05,15.4,1.41,22.95,4.38,7.55,2.97,14.42,8.2,20.6,15.69,4.99,6.1,8.37,13.62,10.15,22.54,1.11,5.91,1.7,14.57,1.78,25.98l.37,110.9-47.14.29-.7-112.03c-.04-6.67-1.15-12.15-3.33-16.45-4.14-8.15-11.7-12.2-22.68-12.13-12.7.08-21.44,5.41-26.21,15.98-2.44,5.61-3.64,12.35-3.59,20.2l.65,104.76-46.33.29-.65-104.76c-.06-10.44-1.19-18.02-3.37-22.74Z"/>
    <path class="cls-2" d="M996.09,97.2c-18.51.12-30.9,6.22-37.18,18.31-3.51,6.8-5.22,17.25-5.13,31.35l.52,84.1-46.33.29-1.09-175.95,43.91-.27.19,30.67c7.03-11.77,13.17-19.83,18.41-24.17,8.56-7.26,19.73-10.94,33.51-11.02.86,0,1.59.02,2.18.07.59.05,1.91.12,3.96.22l.29,47.14c-2.91-.3-5.49-.5-7.75-.6s-4.09-.14-5.49-.13Z"/>
  </g>
  <path class="cls-3" d="M891.07,109.22c-14.34-46.34-80.59-65.6-147.97-43.02-59.51,19.94-99.98,65.84-98.76,108.21l-1.64,272.31,18.43-.11-1.45-233.17c25.79,29.49,80.17,39.05,135.33,20.57,67.39-22.58,110.4-78.45,96.06-124.79Z"/>
</svg>