<?xml version="1.0" encoding="UTF-8"?>
<svg xmlns="http://www.w3.org/2000/svg" viewBox="0 0 476.55 402.96">
  <defs>
    <style>
      .cls-1 {
        fill: #6c6365;
      }

      .cls-1, .cls-2, .cls-3, .cls-4, .cls-5, .cls-6, .cls-7, .cls-8, .cls-9, .cls-10, .cls-11, .cls-12 {
        stroke-miterlimit: 10;
      }

      .cls-1, .cls-2, .cls-3, .cls-6, .cls-7, .cls-8, .cls-10, .cls-11, .cls-12 {
        stroke: #fff;
      }

      .cls-2 {
        fill: #6cbd45;
      }

      .cls-3 {
        stroke-width: 7px;
      }

      .cls-3, .cls-8 {
        fill: none;
      }

      .cls-4 {
        stroke: #231f20;
      }

      .cls-4, .cls-13, .cls-6, .cls-11, .cls-14 {
        fill: #231f20;
      }

      .cls-4, .cls-5 {
        stroke-width: 2px;
      }

      .cls-5 {
        fill: #fff;
        opacity: .5;
        stroke: #f1f1f2;
      }

      .cls-15 {
        fill: #dfe0e1;
      }

      .cls-7 {
        fill: #ee4e97;
      }

      .cls-8 {
        stroke-width: .5px;
      }

      .cls-16 {
        fill: #764f9f;
      }

      .cls-17 {
        fill: #f1f1f2;
      }

      .cls-9 {
        fill: #79d2f7;
        stroke: #231c1e;
      }

      .cls-18 {
        fill: #a24b9c;
      }

      .cls-10 {
        fill: #93c965;
      }

      .cls-19 {
        opacity: .3;
      }

      .cls-20 {
        fill: #d0d2d3;
      }

      .cls-11 {
        stroke-width: 3px;
      }

      .cls-14 {
        opacity: .4;
      }

      .cls-12 {
        fill: #ec1c24;
      }

      .cls-21 {
        fill: #a6a8ab;
      }
    </style>
  </defs>
  <g id="base">
    <rect class="cls-9" x=".5" y=".5" width="432" height="360"/>
    <circle class="cls-15" cx="217.06" cy="179.94" r="136.75"/>
  </g>
  <g id="disk">
    <circle class="cls-13" cx="216.5" cy="180.5" r="131.5"/>
    <g class="cls-19">
      <circle class="cls-8" cx="216.5" cy="180.5" r="40.39"/>
      <circle class="cls-8" cx="216.5" cy="180.5" r="45.92"/>
      <circle class="cls-8" cx="216.5" cy="180.5" r="51.45"/>
      <circle class="cls-8" cx="216.5" cy="180.5" r="56.98"/>
      <circle class="cls-8" cx="216.5" cy="180.5" r="62.51"/>
      <circle class="cls-8" cx="216.5" cy="180.5" r="68.04"/>
      <circle class="cls-8" cx="216.5" cy="180.5" r="73.57"/>
      <circle class="cls-8" cx="216.5" cy="180.5" r="79.1"/>
      <circle class="cls-8" cx="216.5" cy="180.5" r="84.63"/>
      <circle class="cls-8" cx="216.5" cy="180.5" r="90.16"/>
      <circle class="cls-8" cx="216.5" cy="180.5" r="95.69"/>
      <circle class="cls-8" cx="216.5" cy="180.5" r="101.22"/>
      <circle class="cls-8" cx="216.5" cy="180.5" r="106.75"/>
      <circle class="cls-8" cx="216.5" cy="180.5" r="112.28"/>
      <circle class="cls-8" cx="216.5" cy="180.5" r="117.81"/>
      <circle class="cls-8" cx="216.5" cy="180.5" r="123.34"/>
      <circle class="cls-8" cx="216.5" cy="180.5" r="128.87"/>
    </g>
    <ellipse class="cls-16" cx="216.94" cy="180.41" rx="45.01" ry="44.32"/>
    <ellipse class="cls-18" cx="216.5" cy="179.86" rx="24.1" ry="23.92"/>
    <circle class="cls-11" cx="216.5" cy="180.5" r="7.91"/>
    <line class="cls-5" x1="216.5" y1="49" x2="216.5" y2="148.75"/>
  </g>
  <g id="volume">
    <line class="cls-4" x1="41.52" y1="124.77" x2="41.52" y2="224.52"/>
    <rect class="cls-14" x="-24.26" y="157.05" width="131.39" height="36.85" transform="translate(216.91 134.04) rotate(90)"/>
    <rect class="cls-17" x="35.76" y="131.42" width="10.63" height="24.07" transform="translate(184.53 102.38) rotate(90)"/>
  </g>
  <g id="needle">
    <circle class="cls-6" cx="398.26" cy="329.31" r="29.28"/>
    <g>
      <path class="cls-3" d="M444.46,374.91c-29.74-28.5-83.04-79.62-106.81-102.41-3.46-3.44-6.93-6.47-8.37-11.09-2.02-7.77-1.48-15.47-2-25.38-.26-8.29-.57-17.88-.85-26.43-.22-6.58-.38-12.96-.65-19.34-.25-8.19-1.27-15.67-6.06-21.28-5.73-6.97-13.04-12.73-19.76-18.89-6.78-6.04-13.89-12.35-20.12-17.9"/>
      <rect class="cls-21" x="263.33" y="125.72" width="33.02" height="16.11" transform="translate(146.42 -146.24) rotate(38.97)"/>
      <rect class="cls-21" x="424.96" y="365.95" width="49.53" height="24.08" transform="translate(337.84 -198.73) rotate(38.97)"/>
      <rect class="cls-20" x="450.32" y="380.57" width="24.63" height="15.73" transform="translate(-130.33 503.79) rotate(-51.03)"/>
    </g>
    <circle class="cls-21" cx="398.26" cy="329.31" r="12.62"/>
  </g>
  <g id="sound-sytem">
    <circle class="cls-13" cx="44.46" cy="40.73" r="18.28"/>
    <circle class="cls-6" cx="328.16" cy="24.73" r="8.07"/>
    <circle class="cls-10" cx="368.98" cy="24.73" r="8.07"/>
    <circle class="cls-6" cx="348.57" cy="24.73" r="8.07"/>
    <circle class="cls-21" cx="44.46" cy="40.73" r="7.93"/>
    <rect class="cls-6" x="28.07" y="329.31" width="38.06" height="20.26"/>
    <rect class="cls-17" x="368.12" y="17.13" width="1.71" height="6.93"/>
    <rect class="cls-17" x="343.52" y="21.44" width="1.71" height="6.93" transform="translate(369.28 -319.46) rotate(90)"/>
    <rect class="cls-17" x="326.91" y="25.39" width="1.71" height="6.93" transform="translate(655.54 57.71) rotate(180)"/>
    <circle class="cls-6" cx="328.62" cy="48.66" r="8.07"/>
    <rect class="cls-17" x="327.37" y="49.32" width="1.71" height="6.93" transform="translate(656.45 105.57) rotate(180)"/>
    <circle class="cls-6" cx="348.57" cy="49.32" r="8.07"/>
    <rect class="cls-17" x="347.32" y="49.98" width="1.71" height="6.93" transform="translate(696.35 106.89) rotate(180)"/>
    <circle class="cls-2" cx="368.98" cy="48.66" r="8.07"/>
    <rect class="cls-17" x="364" y="44.81" width="1.71" height="6.93" transform="translate(316.58 413.13) rotate(-90)"/>
    <rect class="cls-6" x="77.73" y="329.31" width="38.06" height="20.26"/>
    <rect class="cls-1" x="127.52" y="329.31" width="38.06" height="20.26"/>
    <rect class="cls-12" x="176.11" y="329.31" width="38.06" height="20.26"/>
    <rect class="cls-7" x="224.41" y="329.31" width="38.06" height="20.26"/>
  </g>
</svg>